<?xml version="1.0" encoding="iso-8859-1"?>
<!-- Generator: Adobe Illustrator 19.0.0, SVG Export Plug-In . SVG Version: 6.00 Build 0)  -->
<svg version="1.1" id="Capa_1" xmlns="http://www.w3.org/2000/svg" xmlns:xlink="http://www.w3.org/1999/xlink" x="0px" y="0px"
	 viewBox="0 0 512 512" style="enable-background:new 0 0 512 512;" xml:space="preserve">
<polygon style="fill:#F8B64C;" points="331.605,292.071 331.627,335.901 313.301,407.677 180.277,416.53 180.277,292.071 "/>
<path style="fill:#84DBFF;" d="M480.629,394.13l-149.003-58.56v0.32l-18.336,71.787l-115.957-2.539l-16.981-69.237v-0.32
	L31.36,394.13C12.363,401.597,0,419.837,0,440.21v71.787h195.2h121.6H512V440.21C512,419.847,499.531,401.607,480.629,394.13"/>
<polygon style="fill:#40596B;" points="290.005,430.983 255.968,396.925 221.899,430.983 237.92,446.994 231.669,511.997 
	280.213,511.997 274.048,446.941 "/>
<g style="opacity:0.1;">
	<g>
		<polygon style="fill:#40596B;" points="331.605,292.071 331.563,335.901 277.547,379.41 215.253,333.106 248.523,292.071 		"/>
	</g>
</g>
<g>
	<path style="fill:#F8B64C;" d="M175.712,192.925c1.664,19.147-7.627,35.605-20.747,36.747
		c-13.141,1.152-25.141-13.44-26.837-32.587c-1.664-19.147,7.627-35.605,20.768-36.747
		C162.027,159.186,174.048,173.778,175.712,192.925"/>
	<path style="fill:#F8B64C;" d="M383.776,197.085c-1.664,19.147-13.685,33.739-26.816,32.587
		c-13.141-1.141-22.443-17.6-20.747-36.747c1.664-19.147,13.664-33.739,26.816-32.587
		C376.171,161.479,385.44,177.938,383.776,197.085"/>
</g>
<path style="fill:#FFD15C;" d="M366.443,142.834v36.267c-0.107,7.68-0.523,15.36-1.483,22.933c-1.6,12.587-4.267,24.96-8,36.907
	c-9.088,28.907-24.331,55.573-44.917,78.08l-10.56,11.52c-9.6,10.56-23.253,16.533-37.547,16.533h-16
	c-14.187,0-27.829-6.08-37.44-16.533l-10.453-11.52c-14.603-15.893-26.56-34.027-35.413-53.333
	c-8.96-19.413-14.933-40.224-17.483-61.653c-0.96-7.573-1.504-15.253-1.504-22.933c-0.107-0.853-0.107-1.6-0.107-2.453v-33.173
	c0-10.443,1.483-20.683,4.267-30.293c13.109-46.187,55.669-80.107,106.229-80.107c50.453,0,93.024,33.92,106.144,80.107
	C364.96,122.567,366.443,132.594,366.443,142.834"/>
<g>
	<polygon style="fill:#54C0EB;" points="255.968,396.925 331.584,335.559 336,337.298 301.877,443.026 	"/>
	<polygon style="fill:#54C0EB;" points="256,396.925 180.363,335.559 175.947,337.298 210.091,443.026 	"/>
</g>
<g>
	<path style="fill:#ACB3BA;" d="M354.464,324.701c-0.107,0.117-0.224,0.117-0.224,0.117v-0.235
		C354.357,324.583,354.464,324.701,354.464,324.701"/>
	<path style="fill:#ACB3BA;" d="M354.944,324.583v0.235c0,0-0.128,0-0.224-0.117C354.709,324.701,354.816,324.583,354.944,324.583"
		/>
</g>
<path style="fill:#40596B;" d="M364.715,206.002c3.584-34.912-2.859-58.037-7.851-70.027c-2.955-7.083-3.712-14.72-2.645-22.315
	c4.565-33.141-12.832-28.661-12.832-28.661C303.904,103.41,256,103.005,256,103.005s-47.915,0.405-85.376-18.005
	c0,0-17.419-4.48-12.832,28.661c1.045,7.595,0.288,15.232-2.667,22.304c-5.003,12-11.435,35.125-7.851,70.037
	c0,0-73.088-213.749,108.725-205.781C437.813-7.747,364.715,206.002,364.715,206.002"/>
<g>
</g>
<g>
</g>
<g>
</g>
<g>
</g>
<g>
</g>
<g>
</g>
<g>
</g>
<g>
</g>
<g>
</g>
<g>
</g>
<g>
</g>
<g>
</g>
<g>
</g>
<g>
</g>
<g>
</g>
</svg>
