<svg version="1" xmlns="http://www.w3.org/2000/svg" width="933.333" height="933.333" viewBox="0 0 700.000000 700.000000"><path d="M341.2 3.4c-2.8 1.9-13.6 10.3-23.9 18.7-47.7 39-76.9 58.2-120.8 79.5-41.4 20.1-84.4 35.3-131.5 46.4-31.1 7.4-31.8 7.8-34 15.9-.8 3-1 31.2-.7 100.4.4 103.8.2 99.1 5.8 121.2 7.3 28.6 25.2 65.7 49.4 102.5 59.4 90.4 153.8 176.7 222.2 203 15.9 6.1 27.5 8.5 42.3 8.5 11.4 0 15.1-.5 24-2.8 40.4-10.4 86.5-40 139.9-89.7 24.3-22.7 55-56.5 74.7-82.5 8.1-10.6 33.6-48.4 41.1-61 18.8-31.2 32.9-66.7 38-95.5 1.7-9.7 1.8-17.6 1.8-107.5 0-90.8-.1-97.2-1.8-100.2-2.4-4.4-5.5-5.8-20.6-9.2-28.9-6.6-64-16.9-90.4-26.7-12.7-4.7-16.2-5.2-20.7-2.9-8.3 4.3-9.9 15.4-3.3 21.7 6.3 6 63.8 24.4 106.6 34.2l2.7.6v87.8c0 93.5-.1 94.8-5 113.6-5.5 20.8-19.1 51.1-34.6 76.6l-6.9 11.5-.6-21.5c-.7-26.3-2.9-37.1-10.4-52-6.7-13.4-19.6-27.4-34-37-4.4-2.9-8.3-5.6-8.8-6-.4-.3 1-4.4 3.2-9.1 5.5-11.7 7.1-18.5 7.7-32.4.5-9.7.2-13.8-1.4-21.6-3.7-17.7-12.8-33.8-26.5-46.5-39.1-36.5-103-28.7-132 16.2-10.3 16-14.1 29-14 48.4 0 15.7 2 24.6 8.1 37.3l3.8 7.8-3.6 1.9c-10.3 5.3-27.2 20.2-33.5 29.7-1.5 2.4-3.1 4.3-3.5 4.3-.4 0-2.4-2.5-4.4-5.5-6.6-9.5-22.4-23.3-33.2-28.8l-3-1.6 3.8-7.8c6.1-12.7 8.1-21.6 8.1-37.3.1-10.8-.3-15.1-2-21.5-10.2-37.9-41.6-63.8-80.3-66.2-35.3-2.1-68.8 18.2-83.9 50.9-5.3 11.4-7.2 19.3-7.8 32.8-.6 14.7 1.7 27 7.6 39.5 2.3 4.8 4.1 8.9 4.1 9 0 .2-4.4 3.2-9.8 6.8-11.5 7.7-24.8 21.1-30.5 30.8-4.7 8-9.2 19.7-11.4 29.2-1 4.7-1.8 14.6-2.2 28.7l-.6 21.5-7.8-13c-19.7-32.6-34-68.4-37.7-94-.6-4.2-1-42-1-94.7V178l2.8-.6c8.8-2 39.6-10.1 50.7-13.4 32.2-9.6 66.3-22.9 96.1-37.4 46-22.4 78.9-43.9 124.1-80.8L350 30.9l17.8 14.5c19.4 15.9 38.9 30.8 52.6 40.1 7.8 5.3 9.4 6 13.5 5.9 7.7-.1 13-5.2 13.3-12.8.2-6.6-1.8-9.2-14.1-17.8-15.3-10.7-28.5-20.9-51.6-39.7-10.4-8.5-21-16.7-23.4-18.3-6.2-3.9-10.5-3.7-16.9.6zm-92.3 244.1c16.2 3.9 31.6 16.4 38.9 31.6 4.7 9.8 6.2 16.2 6.2 26.4s-1.5 16.6-6.2 26.4c-3.2 6.7-5.6 10.1-11.7 16-12 12-24.8 17.2-42.1 17.2-20.7.1-39.7-10.6-50.9-28.6-8.5-13.6-10.8-33.3-5.7-49 6.2-19.1 21.7-34.1 41.1-39.6 7.6-2.2 21.9-2.4 30.4-.4zm231.5.1c18.6 4.8 34.9 19.4 41.3 37.3 14.3 39.2-14.3 80.3-55.7 80.2-17.3 0-30.1-5.2-42.1-17.2-12.1-12-17.9-25.8-17.9-42.7 0-9.6 1.9-17.5 6.7-27.2 6.8-14 22.7-26.7 37.9-30.4 8.1-2 22.2-2 29.8 0zM186 378.5c9.2 6.1 19.6 10.4 31.4 13 10.4 2.3 29.8 1.6 40.4-1.4 8.7-2.5 19.4-7.8 27.5-13.4l5.7-4 5.3 2.8c6.8 3.7 10.1 5.9 16.6 11.4 5.4 4.5 14.1 15.3 14.1 17.5 0 .6-2 1.9-4.5 2.9-33.4 13.8-50 53.8-36.6 88.4l2.8 7.2-5.6 3.7c-13.7 9-24.6 23.7-30.2 40.9-2.2 6.7-2.3 8.7-2.7 42.3l-.3 35.2-6.2-4.7c-30.6-23.5-71.8-64.6-101.1-100.8l-9.7-12 .4-41c.3-45.5.4-46.3 7.3-60.4 4.8-9.8 15-20.2 26.8-27.6 4.9-3 9.3-5.5 9.7-5.5.4 0 4.4 2.5 8.9 5.5zm231.7-.1c29.5 19.7 71.4 19 98.6-1.8 2.6-2 5.4-3.6 6.2-3.6 1.9 0 13.3 6.9 20.3 12.2 10.4 8.1 18.3 20.6 22.4 35.5 1.9 7.1 2.1 11.1 2.5 46.8l.5 39.1L559 518c-29.3 36.2-64 71.3-97 98l-11.5 9.3-.6-34.4c-.7-38.1-1.1-41.4-7.5-54.6-5.5-11.6-14.8-22-27-30.4-3.4-2.3-4.4-3.5-3.8-4.7 9.9-23.1 9.4-42.8-1.4-63.7-5.5-10.6-18.2-22.8-29.4-28.4l-8.8-4.3 1.8-3.1c3.4-6.1 17.5-19.3 25.7-24.1 4.4-2.5 8.5-4.6 9.1-4.6.6 0 4.7 2.4 9.1 5.4zm-59.5 51.7c12.4 2.7 24.3 12.2 29.5 23.6 3.5 7.6 4.3 19.4 1.8 27.9-5.7 19.8-26 33-45.6 29.5-21.8-3.8-35.9-21.6-34.7-43.5.6-10.3 3.8-17.6 11-25.2 10.2-10.8 24-15.2 38-12.3zM311 527c1.5 1.1 6 3.5 10 5.4 20.5 9.9 44.9 8.6 64.6-3.4 3.6-2.2 7-4 7.5-4 1.3 0 8.5 4.6 13.2 8.4 5.2 4.2 11.2 13.5 13.9 21.5 2.1 6.3 2.2 8.7 2.6 47.8l.4 41.2-5.4 3.4c-15.4 9.9-35.5 19-50 22.6-10.9 2.8-24.7 2.8-35.4.1-14.6-3.7-34.6-12.8-50.2-22.7l-5.4-3.4.4-41.2c.4-39 .6-41.5 2.6-47.8 3.9-11.8 10.6-19.9 23.2-28.2 3.3-2.1 4.7-2.1 8 .3z"/><path d="M479.5 96.8c-6.5 4.1-8.9 12.9-5.1 18.7 5.9 8.9 20.3 8.4 24.2-1 2.6-6.3 1.3-11.4-4-16.4-3.5-3.3-11-3.9-15.1-1.3z"/></svg>